<svg xmlns="http://www.w3.org/2000/svg" viewBox="0 0 70.97 44.37"><defs><style>.cls-1{fill:#fff;}</style></defs><title>behance-blan</title><g id="Calque_2" data-name="Calque 2"><g id="Layer_1" data-name="Layer 1"><path class="cls-1" d="M36.57,30.9c0-5.47-2.6-9.51-8-11,3.92-1.87,6-4.69,6-9.09C34.56,2.11,28.07,0,20.59,0H0V43.54H21.17c7.94,0,15.39-3.79,15.39-12.64ZM9.6,7.43h9c3.46,0,6.58,1,6.58,5,0,3.7-2.43,5.18-5.86,5.18H9.6Zm0,28.71v-12H20.06c4.23,0,6.9,1.76,6.9,6.22s-3.19,5.77-7.1,5.77Z"/><path class="cls-1" d="M55.59,44.37c7.55,0,12.45-3.39,14.8-10.6H62.73c-.83,2.69-4.23,4.11-6.86,4.11-5.09,0-7.76-3-7.76-8H70.91C71.63,19.74,66,11.13,55.59,11.13c-9.64,0-16.18,7.22-16.18,16.68C39.41,37.63,45.61,44.37,55.59,44.37Zm-.27-26.7c4.36,0,6.56,2.56,6.92,6.73H48.11a6.78,6.78,0,0,1,7.21-6.73Z"/><path class="cls-1" d="M46.34,2.29H64V6.57H46.34Z"/></g></g></svg>