<svg xmlns="http://www.w3.org/2000/svg" viewBox="0 0 434 434"><defs><style>.cls-1{fill:#ffe465;}.cls-2{fill:#fff;}</style></defs><title>behance</title><g id="Calque_2" data-name="Calque 2"><g id="Calque_1-2" data-name="Calque 1"><circle class="cls-1" cx="217" cy="217" r="217"/><circle class="cls-2" cx="217" cy="217" r="187.28"/><circle class="cls-1" cx="217" cy="217" r="157.28"/><g id="Official_copy_3" data-name="Official copy 3"><path class="cls-2" d="M203.91,212.27s19.69-1.5,19.69-25.07-13.35-35.15-33.77-35.15l-69.94-.11V282.07h71.57s35.79,1.13,35.79-39C227.24,243,229.87,212.27,203.91,212.27Zm-58-40.81H181.7s12.24.2,12.24,16.07C193.94,204,181.7,204,181.7,204H145.91Zm39,91.08h-39v-39h39s19.52.2,19.52,19.52S187.76,262.54,185,262.54Z"/><path class="cls-2" d="M282.55,184.46c-48.88,0-48.8,48.8-48.8,48.8s-3.26,48.8,48.8,48.8c0,0,45.54,0,45.54-39h-26s0,19.51-19.51,19.51c0,0-19.52,0-19.52-26h65.06C328.09,223.51,328.09,184.46,282.55,184.46Zm-19.52,39S262.6,204,282.55,204s19.51,19.52,19.51,19.52Z"/><rect class="cls-2" x="256.52" y="164.95" width="52.05" height="13.01"/></g></g></g></svg>