<?xml version="1.0" ?><svg enable-background="new 0 0 32 32" version="1.1" viewBox="0 0 32 32" xml:space="preserve" xmlns="http://www.w3.org/2000/svg" xmlns:xlink="http://www.w3.org/1999/xlink"><g id="Layer_6"/><g id="Layer_4_copy_2"><g><circle cx="16" cy="16" fill="#D3D3D3" r="16"/><circle cx="16" cy="16" fill="#FFFFFF" r="13.809"/><circle cx="16" cy="16" r="11.597"/></g></g><g id="Official_copy_3"><g><path d="M15.035,15.651c0,0,1.452-0.11,1.452-1.848c0-1.736-0.985-2.592-2.49-2.592l-5.157-0.008v9.595h5.277    c0,0,2.639,0.083,2.639-2.878C16.755,17.919,16.949,15.651,15.035,15.651z M10.758,12.642h2.639c0,0,0.903,0.015,0.903,1.185    c0,1.213-0.903,1.213-0.903,1.213h-2.639V12.642z M13.637,19.358h-2.878V16.48h2.878c0,0,1.439,0.015,1.439,1.439    C15.076,19.343,13.844,19.358,13.637,19.358z" fill="#FFFFFF"/><path d="M20.833,13.601c-3.604,0-3.598,3.598-3.598,3.598s-0.24,3.598,3.598,3.598c0,0,3.358,0,3.358-2.878h-1.919    c0,0,0,1.439-1.439,1.439c0,0-1.439,0-1.439-1.919c0,0,3.838,0,4.797,0C24.191,16.48,24.191,13.601,20.833,13.601z M19.394,16.48    c0,0-0.032-1.439,1.439-1.439c1.47,0,1.439,1.439,1.439,1.439H19.394z" fill="#FFFFFF"/><rect fill="#FFFFFF" height="0.959" width="3.838" x="18.914" y="12.162"/></g></g></svg>