<svg xmlns="http://www.w3.org/2000/svg" viewBox="0 0 430 430"><defs><style>.cls-1{fill:#ffe465;}.cls-2{fill:#fff;}</style></defs><title>instagram</title><g id="Calque_2" data-name="Calque 2"><g id="Calque_1-2" data-name="Calque 1"><circle class="cls-1" cx="215" cy="215" r="215"/><circle class="cls-2" cx="215" cy="215" r="185.56"/><circle class="cls-1" cx="215" cy="215" r="155.83"/><g id="Official_copy_3" data-name="Official copy 3"><path class="cls-2" d="M282.35,125.2H147.65a22.1,22.1,0,0,0-22.45,22.45v134.7a22.11,22.11,0,0,0,22.45,22.45h134.7a22.11,22.11,0,0,0,22.45-22.45V147.65A22.11,22.11,0,0,0,282.35,125.2Zm-67.22,54.53c19.92,0,36.07,15.64,36.07,34.93s-16.14,34.94-36.07,34.94-36-15.65-36-34.94S195.23,179.73,215.13,179.73Zm67.22,97c0,3.94-1.68,5.62-5.62,5.62H153.25c-3.92,0-5.61-1.68-5.61-5.62V198.16l14,3a52,52,0,0,0-2.32,15.41c0,29.85,25,54.07,55.81,54.07s55.81-24.21,55.81-54.07a52.73,52.73,0,0,0-2.31-15.41l13.72-3v78.57Zm0-101a5.62,5.62,0,0,1-5.62,5.62H254.28a5.62,5.62,0,0,1-5.62-5.62V153.25a5.61,5.61,0,0,1,5.62-5.61h22.45a5.61,5.61,0,0,1,5.62,5.61Z"/></g></g></g></svg>