<svg xmlns="http://www.w3.org/2000/svg" viewBox="0 0 56.23 56.23"><defs><style>.cls-1{fill:#ffd600;}</style></defs><title>inst-jaune</title><g id="Calque_2" data-name="Calque 2"><g id="Layer_1" data-name="Layer 1"><path class="cls-1" d="M40.71,0H15.52A15.53,15.53,0,0,0,0,15.52V40.71A15.53,15.53,0,0,0,15.52,56.23H40.71A15.53,15.53,0,0,0,56.23,40.71V15.52A15.53,15.53,0,0,0,40.71,0ZM51.24,40.71A10.54,10.54,0,0,1,40.71,51.24H15.52A10.54,10.54,0,0,1,5,40.71V15.52A10.54,10.54,0,0,1,15.52,5H40.71A10.54,10.54,0,0,1,51.24,15.52V40.71Z"/><path class="cls-1" d="M28.11,13.63A14.49,14.49,0,1,0,42.6,28.11,14.5,14.5,0,0,0,28.11,13.63Zm0,24a9.5,9.5,0,1,1,9.5-9.5A9.51,9.51,0,0,1,28.11,37.61Z"/><path class="cls-1" d="M43.21,9.4a3.66,3.66,0,1,0,2.59,1.07A3.67,3.67,0,0,0,43.21,9.4Z"/></g></g></svg>