<svg xmlns="http://www.w3.org/2000/svg" viewBox="0 0 49.54 47.35"><defs><style>.cls-1{fill:#fff;}</style></defs><title>linkedin-blan</title><g id="Calque_2" data-name="Calque 2"><g id="Layer_1" data-name="Layer 1"><path class="cls-1" d="M6,0C2.37,0,0,2.39,0,5.52A5.5,5.5,0,0,0,5.87,11h.07c3.7,0,6-2.45,6-5.52S9.64,0,6,0Z"/><path class="cls-1" d="M.63,15.4H11.25V47.35H.63Z"/><path class="cls-1" d="M37.31,14.65c-5.73,0-9.57,5.38-9.57,5.38V15.4H17.12V47.35H27.74V29.51a7.28,7.28,0,0,1,.35-2.59A5.81,5.81,0,0,1,33.54,23c3.84,0,5.38,2.93,5.38,7.22V47.35H49.54V29C49.54,19.22,44.3,14.65,37.31,14.65Z"/></g></g></svg>