<svg xmlns="http://www.w3.org/2000/svg" viewBox="0 0 420 420"><defs><style>.cls-1{fill:#ffe465;}.cls-2{fill:#fff;}</style></defs><title>linkdin</title><g id="Calque_2" data-name="Calque 2"><g id="Calque_1-2" data-name="Calque 1"><circle class="cls-1" cx="210" cy="210" r="210"/><circle class="cls-2" cx="210" cy="210" r="181.24"/><circle class="cls-1" cx="210" cy="210" r="152.21"/><g id="Official_copy_3" data-name="Official copy 3"><path class="cls-2" d="M298.91,281.85V216.09c0-35.23-18.81-51.62-43.88-51.62-20.24,0-29.29,11.13-34.35,18.94V167.16H182.57c.5,10.76,0,114.67,0,114.67h38.11v-64c0-3.41.25-6.84,1.26-9.29,2.76-6.85,9-13.94,19.55-13.94,13.79,0,19.3,10.51,19.3,25.92v61.36l38.12,0ZM142.41,151.53c13.28,0,21.56-8.82,21.56-19.82-.25-11.25-8.28-19.81-21.31-19.81s-21.57,8.56-21.57,19.81c0,11,8.27,19.82,21.07,19.82Zm19.05,130.32V167.17H123.35V281.85Z"/></g></g></g></svg>