<svg xmlns="http://www.w3.org/2000/svg" viewBox="0 0 430 430"><defs><style>.cls-1{fill:#ffe465;}.cls-2{fill:#fff;}</style></defs><title>youtube</title><g id="Calque_2" data-name="Calque 2"><g id="Calque_1-2" data-name="Calque 1"><circle class="cls-1" cx="215" cy="215" r="215"/><circle class="cls-2" cx="215" cy="215" r="185.56"/><circle class="cls-1" cx="215" cy="215" r="155.83"/><path class="cls-2" d="M270.52,247.55a3.88,3.88,0,0,0-3.38,1.38c-.69.89-1,2.39-1,4.5v5.07h8.72v-5.07a7.45,7.45,0,0,0-1-4.5A3.71,3.71,0,0,0,270.52,247.55Z"/><path class="cls-2" d="M236.53,247.37a4.77,4.77,0,0,0-2.1.48,7.42,7.42,0,0,0-2,1.54v31.25a8.44,8.44,0,0,0,2.34,1.78,5.55,5.55,0,0,0,2.38.53,3.2,3.2,0,0,0,2.66-1.06,5.53,5.53,0,0,0,.86-3.45V252.53a6.1,6.1,0,0,0-1-3.86A3.75,3.75,0,0,0,236.53,247.37Z"/><path class="cls-2" d="M291.33,208.5c-8.11-8.09-76.37-8.2-76.37-8.2s-68.25.11-76.37,8.2-8.14,48.1-8.14,48.33,0,40.23,8.14,48.35S215,313.44,215,313.44s68.26-.17,76.37-8.25,8.22-48.35,8.22-48.35C299.55,256.6,299.45,216.6,291.33,208.5ZM182.51,232.07H171v58.1H159.89v-58.1H148.4v-9.88h34.11ZM215,290.17h-9.85v-5.51a21.38,21.38,0,0,1-5.7,4.65,11.94,11.94,0,0,1-5.72,1.6,6.08,6.08,0,0,1-5.16-2.25c-1.14-1.5-1.72-3.72-1.72-6.71V240h9.85v38.47a4.44,4.44,0,0,0,.6,2.58,2.42,2.42,0,0,0,2,.79,5.5,5.5,0,0,0,2.76-1.06,14,14,0,0,0,3.06-2.69V240H215Zm35.78-10.36c0,3.55-.78,6.26-2.32,8.17a8.14,8.14,0,0,1-6.71,2.83,11.42,11.42,0,0,1-5.14-1.08,12.6,12.6,0,0,1-4.22-3.4v3.84h-10v-68h10v21.89a14.92,14.92,0,0,1,4.23-3.48,9.49,9.49,0,0,1,4.54-1.2,8.45,8.45,0,0,1,7.15,3.2c1.67,2.14,2.47,5.27,2.47,9.38ZM285,266.3H266.12v9.44c0,2.64.32,4.47.95,5.51a3.68,3.68,0,0,0,3.35,1.52,4,4,0,0,0,3.42-1.29c.65-.86,1-2.77,1-5.73v-2.28H285v2.58c0,5.14-1.22,9-3.71,11.63s-6.15,3.89-11.06,3.89c-4.4,0-7.9-1.37-10.44-4.13S256,280.9,256,276.06V253.54a14.28,14.28,0,0,1,4.19-10.63A14.71,14.71,0,0,1,271,238.8q6.78,0,10.42,3.8T285,253.54V266.3Z"/><path class="cls-2" d="M270.48,179.26H259.37v-6.1a23.23,23.23,0,0,1-6.38,5.13,13.78,13.78,0,0,1-6.44,1.76,6.9,6.9,0,0,1-5.8-2.47c-1.29-1.64-1.95-4.12-1.95-7.41V124h11.08v42.36a4.58,4.58,0,0,0,.72,2.83,2.68,2.68,0,0,0,2.25.89,6.24,6.24,0,0,0,3.09-1.17,14.29,14.29,0,0,0,3.42-3V124h11.11v55.26Z"/><path class="cls-2" d="M225.4,126.63a16.19,16.19,0,0,0-11.3-4q-7.56,0-12,3.8a12.68,12.68,0,0,0-4.49,10.23v28.63c0,4.69,1.47,8.43,4.37,11.21s6.81,4.15,11.66,4.15c5.06,0,9-1.34,11.91-4s4.3-6.4,4.3-11.13V136.94A13.42,13.42,0,0,0,225.4,126.63Zm-6.92,39.7a4.63,4.63,0,0,1-1.33,3.49,5,5,0,0,1-3.59,1.27,4.4,4.4,0,0,1-3.38-1.24,5,5,0,0,1-1.2-3.52v-30.1a3.7,3.7,0,0,1,1.28-2.93,4.82,4.82,0,0,1,3.3-1.1,5.44,5.44,0,0,1,3.55,1.1,3.59,3.59,0,0,1,1.36,2.93v30.1Z"/><polygon class="cls-2" points="167.32 104.37 154.73 104.37 169.61 149.59 169.61 179.26 182.12 179.26 182.12 148.19 196.66 104.37 183.95 104.37 176.23 134.31 175.44 134.31 167.32 104.37"/></g></g></svg>